# xmcd
# Copyright (C) 1995-1998 Ti Kan
#
# Track frame offsets:
#       150
#       14100
#       30577
#       47077
#       62740
#       79052
#       91927
#       108302
#       122765
#       137215
#       153165
#       169040
#       184315
#       201865
#       218065
#       234340
#       250828
#       265657
#       280319
#       296221
#
# Disc length: 4130 seconds
#
# Revision: 0
# Processed by: cddbd v1.4PL0 Copyright (c) Steve Scherf et al.
# Submitted via: CD-Transfer v1.0
#
DISCID=21102014
DTITLE=Various Artist - Bravo Hits 2002 - Part 1 - CD 2
DYEAR=02
DGENRE=
TTITLE0=Mandy and Randy    Mandy
TTITLE1=DJ Jaro    Turn The Night
TTITLE2=Brooklyn Bounce    Bring It Back
TTITLE3=Scooter    Nessaja
TTITLE4=Madhouse   Like A Prayer
TTITLE5=Groove Coverage    Moonlight Shadow
TTITLE6=Fragma   Time And Time Again
TTITLE7=Drunkenmunky    E
TTITLE8=Right Said Fred    Stand Up
TTITLE9=Modern Talking    Ready For The Victor
TTITLE10=Hermes House Band    Live Is Life
TTITLE11=Kim Wilde   Born To Be Wild
TTITLE12=Natural   Let Me Count The Ways
TTITLE13=Jeanette   No More Tears
TTITLE14=Kool Savas   Till' Ab Joe
TTITLE15=Band ohne Namen   Girl 4 a Day
TTITLE16=Oli P   Das erste Mal tat's  noch weh
TTITLE17=Aextra    Unändlech wit
TTITLE18=Nena    99 Luftballons
TTITLE19=DJ Tommekk    Kimnotyze
EXTD=
EXTT0=
EXTT1=
EXTT2=
EXTT3=
EXTT4=
EXTT5=
EXTT6=
EXTT7=
EXTT8=
EXTT9=
EXTT10=
EXTT11=
EXTT12=
EXTT13=
EXTT14=
EXTT15=
EXTT16=
EXTT17=
EXTT18=
EXTT19=
PLAYORDER=
